<?xml version="1.0" encoding="utf-8"?>
<!-- Generator: Adobe Illustrator 15.1.0, SVG Export Plug-In . SVG Version: 6.00 Build 0)  -->
<!DOCTYPE svg PUBLIC "-//W3C//DTD SVG 1.1//EN" "http://www.w3.org/Graphics/SVG/1.1/DTD/svg11.dtd">
<svg version="1.1" id="Layer_1" xmlns="http://www.w3.org/2000/svg" xmlns:xlink="http://www.w3.org/1999/xlink" x="0px" y="0px"
	 width="84px" height="131px" viewBox="0 0 84 131" enable-background="new 0 0 84 131" xml:space="preserve">
<g>
	<path fill-rule="evenodd" clip-rule="evenodd" fill="#FFFFFF" d="M11.443,118.095c0.69,0.01,0.455,0.177,1.055,0.227
		c-0.106,0.401-0.201,0.423-0.659,0.442L11.443,118.095L11.443,118.095z M18.167,118.197c-0.431-0.029-0.33,0.079-0.443-0.339
		l0.575-0.003L18.167,118.197L18.167,118.197z M46.572,118.473l-0.162-0.621l0.717-0.096L46.572,118.473L46.572,118.473z
		 M26.474,115.655c0.055-0.224,0.962-0.351,1.122-0.351c0.26,0,0.255-0.092,0.459-0.211l0.471,0.095
		c0.189,0.282,1.016,1.183,1.307,1.48c0.257,0.262,0.437,0.435,0.698,0.694c0.307,0.306,0.363,0.553,0.603,0.79
		c0.363,0.361,1.102,0.979,1.529,1.257c0.501,0.326,1.534,0.658,1.786,1.001c0.833,0.019,1.307,0.464,2.439,0.464h0.929l0.007-0.206
		l0.465-0.151l0.226,0.128l0.813-0.351h0.231h0.233c0.311-0.149,0.576-0.17,0.93-0.348c0.348-0.176,0.51-0.344,0.888-0.506
		c0.758-0.325,1.282-0.384,2.016-0.771h0.231c0.427,0,0.271,0.349,0.697,0.349h0.58l0.345-0.02l0.47-0.096
		c-0.122,0.517-0.837,1.368-1.172,1.746l0.063,0.215l-0.061,0.338l-0.345,0.112l-0.576,0.142H43.39
		c-0.054,0-1.195-0.602-1.393-0.696h-0.232H41.3c-0.707,0.339-2.619,0.606-3.255,1.054l-1.042-0.474h-0.232l-0.354,0.01
		l-0.235-0.147l-0.34,0.138l-0.458,0.021l-2.443,0.67l-0.351-0.11c-0.055-0.238-0.221-0.696-0.463-0.696
		c-0.505,0-0.36,0.185-0.93,0.232c-0.35,0.523-0.445,0.273-0.726,0.55c-0.289,0.288-0.046,0.727-0.552,0.727
		c-0.19,0-0.349-0.07-0.349-0.232c0-0.313,0.324-0.72,0.581-0.813c0.051-0.603,1.278-1.505,1.278-2.089v-0.348l0.019-0.245
		l-0.367-0.568h-0.233h-0.231c-0.229-0.12-0.342-0.232-0.697-0.232h-0.465c-0.061-0.227-0.729-1.16-0.929-1.16
		c-0.141,0-0.464,0.52-0.464,0.695v0.929c-0.575,0.134-1.206,0.545-1.626,0.581c0.133-0.498,1.394-1.302,1.394-2.321l0.002-0.71
		l-0.816-0.102c0-0.3-0.217-0.232-0.463-0.232c-0.024-0.036-0.047-0.073-0.071-0.109L26.474,115.655L26.474,115.655z
		 M50.592,114.259c-0.04,0.466-0.431,0.648-0.697,1.045l-0.356-0.004L49.199,116h-0.465v0.232h-1.51v-0.348
		c0.455-0.038,0.752-0.36,1.203-0.538c0.538-0.211,0.676-0.739,1.12-0.739h0.116l0.239,0.002c0.108-0.346,0.677-0.49,1.155-0.583
		C50.787,114.397,51.136,114.203,50.592,114.259L50.592,114.259z M51.269,113.326l0.371,0.002l0.343-0.014
		c-0.091,0.296,0.012,0.382-0.17,0.279c-0.096-0.054-0.093-0.063-0.132,0.035l-0.064,0.158l-0.468,0.003L51.269,113.326
		L51.269,113.326z M74.195,111.124c0.518,0.197,0.672,0.458,1.135,0.583c-0.12,0.447-1.178,0.8-1.742,0.812v0.232
		c-0.537,0.012-0.921,0.16-1.277,0.348v-0.231h0.232c0.036-0.434,0.521-1.074,0.991-1.307c0.265-0.132,0.286-0.008,0.286-0.334
		C73.82,110.907,73.923,111.02,74.195,111.124L74.195,111.124z M70.219,110.778c0.117-0.217,0.567-1.045,0.813-1.045
		c0.225,0,0.379,0.159,0.697,0.232C71.596,110.469,70.799,110.729,70.219,110.778L70.219,110.778z M60.697,110.546
		c0.101-0.212,0.368-1.162,0.58-1.162c0.197,0,0.434,0.155,0.582,0.233l-0.143,0.575C61.095,110.251,61.437,110.484,60.697,110.546
		L60.697,110.546z M58.605,109.038c-0.155,0-0.31,0-0.464,0c0-0.117,0-0.233,0-0.35C58.596,108.727,58.494,108.619,58.605,109.038
		L58.605,109.038z M66.271,107.876c0.154,0,0.31,0,0.465,0c0.187,0.089,1.536,0.563,1.741,0.58
		c-0.213,0.801-1.282,0.188-1.858,1.276h-0.232h-0.464c-0.082-0.35-0.068-0.695-0.465-0.695c-0.232,0-0.464,0-0.697,0
		c0.042-0.342,0.083-0.683,0.125-1.023C65.365,107.831,65.749,107.876,66.271,107.876L66.271,107.876z M36.185,90.124
		c-0.026-0.197-0.053-0.394-0.079-0.591c0.033-0.151,0.066-0.302,0.1-0.453c-0.044-0.117-0.086-0.235-0.131-0.353
		c0-0.077,0-0.154,0-0.232c0-0.305,0.038-0.239,0.228-0.022c0.386,0.436,0.552,1.093,0.817,1.648c0,0.077,0,0.154,0,0.231
		c0,0.279-0.102,0.622-0.285,0.84c-0.242,0.292-0.292,0.212-0.398-0.07c-0.026-0.07-0.053-0.142-0.079-0.213
		c0.029-0.105,0.058-0.211,0.086-0.317C36.357,90.436,36.271,90.279,36.185,90.124L36.185,90.124z M52.566,107.296
		c0.014,0.661-0.219,1.288-0.238,1.976c0.08,0.154,0.159,0.309,0.238,0.461c0.846-0.446,1.729-0.723,2.555-1.16
		c0.077,0,0.156,0,0.232,0c0.078,0,0.155,0,0.233,0c0.211,0,1.442-0.926,1.67-1.116c0.42-0.353,1.108-1.194,1.587-1.319
		c0.037-0.232,0.074-0.466,0.11-0.698c0.546-0.366,2.8-2.999,3.034-3.7c0.121-0.365,0.236-0.707,0.378-1.132
		c0.269-0.801,0.467-1.507,0.727-2.292c0.247-0.75,1.786-4.001,1.786-4.366c0-0.198-0.155-0.434-0.203-0.586
		c-0.087-0.385-0.174-0.77-0.262-1.155c0-0.192,0-0.386,0-0.58c0-0.232,0-0.464,0-0.696c-0.007-0.903,0.117-1.661,0.106-2.559
		c0.388-0.697,0.328-2.165,0.591-3.011c-0.009-0.114-0.015-0.229-0.023-0.344c-0.07-0.272-0.14-0.544-0.209-0.817
		c-0.008-0.192-0.013-0.383-0.021-0.576c-0.112-0.458-0.225-0.917-0.338-1.376c-0.112-0.046-0.226-0.092-0.34-0.137
		c-0.077,0-0.154,0-0.231,0c-0.503,0-1.007,0-1.509,0c-0.116,0-0.233,0-0.35,0c-0.313-0.15-0.723-0.338-1.161-0.349
		c-0.132-0.365-0.497-0.419-0.891-0.618c-0.513-0.26-0.368-0.403-0.967-0.542c-0.389,0.734-1.394,2.583-1.394,3.598
		c0,0.116,0,0.232,0,0.348c0.308,0.112,0.375,0.246,0.465,0.58c0.575,0.048,1.974,0.36,1.974,0.93c0,0.577,0,1.154-0.001,1.732
		c-0.309,0.08-0.619,0.16-0.928,0.239c-0.132,0.494-0.81,1.28-1.046,1.741c-0.354,0.691-0.504,1.447-0.812,2.09
		c0,0.155,0,0.31,0,0.464c-0.261,0.542-0.335,1.241-0.537,1.902c-0.226,0.749-0.439,1.079-0.701,1.737
		c-0.173,0.437-0.424,1.459-0.507,1.929c-0.109,0.608-0.489,1.271-0.707,1.848c-0.225,0.599-0.368,1.197-0.583,1.855
		c-0.171,0.528-0.424,1.387-0.549,1.888c-0.167,0.678-0.299,1.27-0.557,1.88C52.93,105.972,52.827,106.755,52.566,107.296
		L52.566,107.296z M32.009,76.657c0.012,1.089,0.233,2.791,0.233,4.41c-0.276,0.574-0.211,1.391-0.581,2.089
		c0,0.078,0,0.155,0,0.232c0,0.117,0,0.232,0,0.348c0.009,0.074,0.017,0.148,0.026,0.223c0.106,0.351,0.214,0.703,0.322,1.054
		c0.056,0.006,0.112,0.014,0.167,0.021c0.641,1.936,0.995,4.118,0.995,5.782c0.002,0.116,0.003,0.23,0.004,0.347
		c0.077,0.194,0.151,0.388,0.228,0.582c0.055,1.693-0.274,4.222,0.254,5.812c-0.046,0.112-0.093,0.227-0.138,0.339
		c0,0.077,0,0.154,0,0.232c0,0.036,0.621,1.699,0.697,1.857c0,0.116,0,0.231,0,0.348c-0.014,0.338,0.173,0.386,0,0.696
		c1.204,2.274,0.91,9.534,1.394,11.49v0.581v0.813L35.6,114.15l0.126,0.225c0,0.002-0.115,0.217-0.115,0.232
		c-0.01,0.574,0.115,1.167,0.231,1.742c0.476,0.172,0.494,0.621,0.698,1.044c0,0.232,0.15,0.445,0,0.696
		c-0.017,0.031-0.034,0.062-0.05,0.09c-0.192,0.338-0.36,0.495-0.454,0.775c-0.041,0.122-0.273,0.248,0.011,0.33l0.145,0.042
		c0.238,0.027,0.629-0.028,0.978-0.112c0.342-0.08,0.299-0.081,0.299-0.424v-0.121c0-0.58,0.26-1.006,0.465-1.392v-0.232v-0.813
		l-0.023-0.574l-0.209-0.819v-0.58v-0.464c0.042-3.459-0.638-10.583-1.742-12.883c0-0.115,0-0.231,0-0.346c0-0.117,0-0.233,0-0.35
		c0-0.154,0-0.31,0-0.464c0.156-0.325,0.155-0.563,0.37-0.936c-0.045-0.113-0.092-0.227-0.138-0.34c0-0.116,0-0.232,0-0.348
		c0.003-0.273,0.007-0.545,0.01-0.818c-0.041-0.076-0.083-0.151-0.126-0.226c0-0.116,0-0.232,0-0.349c0-1.7-1.277-3.366-1.277-5.106
		c0-0.116,0-0.232,0-0.348c-0.048,0-0.098,0-0.146,0c-0.157,0-0.088-0.175-0.094-0.314c-0.029-0.653-0.146-1.369-0.341-1.775
		c0-0.154,0-0.309,0-0.464c0-0.774,0-1.547,0-2.321c0.002-0.115,0.002-0.23,0.005-0.347c0.076-0.194,0.151-0.388,0.227-0.582
		c0-0.116,0-0.232,0-0.349c0.001-0.115,0.003-0.23,0.005-0.346c0.076-0.194,0.151-0.388,0.226-0.582c0-0.115,0-0.232,0-0.348
		c0-0.04,0-0.079,0-0.117c-0.002-0.115-0.005-0.229-0.008-0.345c-0.113-0.31-0.226-0.621-0.34-0.932
		c0.004-0.156,0.007-0.314,0.01-0.471c-0.042-0.075-0.083-0.15-0.125-0.226c0-0.232,0-0.464,0-0.696c0-0.077,0-0.155,0-0.232
		c-0.004-0.153-0.007-0.308-0.01-0.461c-0.113-0.349-0.225-0.698-0.338-1.048c0-0.115,0-0.232,0-0.348c0-0.31,0-0.619,0-0.928
		c0.003-0.234,0.007-0.468,0.01-0.702c-0.042-0.076-0.084-0.152-0.127-0.227c0-0.116,0-0.232,0-0.349c0-0.077,0-0.155,0-0.232
		c-0.624-0.33-0.893-0.994-1.509-1.044c0,0.193,0,0.387,0,0.58C32.242,76.479,32.009,76.254,32.009,76.657L32.009,76.657z
		 M29.223,72.13c0.091,0.45,0.054,0.702-0.026,1.157c-0.303-0.023-0.439,0.005-0.439-0.345c0.007-0.113,0.014-0.228,0.021-0.342
		C28.882,72.201,28.806,72.139,29.223,72.13L29.223,72.13z M54.996,72.705c0.046-0.074,0.09-0.147,0.136-0.22
		c-0.003-0.118-0.006-0.235-0.01-0.354c0-0.077,0-0.154,0-0.233c-0.031-0.079-0.064-0.159-0.096-0.238
		c-0.055-0.135-0.063-0.092-0.201-0.063c-0.8,0.172-0.6-0.223-1.566-0.363c-0.153-0.01-0.306-0.021-0.459-0.031
		c-0.358,0-0.207,0.163-0.547,0.299c-0.125,0.051-0.033,0.182-0.17,0.156c-0.605-0.117-0.833,0.967-1.446,1.346
		c-0.09,0.057-0.151,0.031-0.248-0.01c-0.046-0.021-0.092-0.041-0.138-0.06c-0.565,0.751-1.163,0.982-1.399,1.402
		c-0.059,0.7-0.585,0.443-1.25,0.957c-0.304,0.234-1.048,0.685-1.422,0.784c0.042,0.271,0.085,0.541,0.126,0.811
		c0.227,0.12,0.454,0.24,0.681,0.36c0.272,0.038,0.545,0.077,0.817,0.116c0.085-0.073,0.172-0.146,0.258-0.219
		c0.188-0.036,0.375-0.072,0.563-0.108c0.21,0.157,0.314,0.276,0.459,0.549c-0.087,0.069-0.171,0.14-0.257,0.209
		c0.053,0.121,0.108,0.242,0.161,0.363c-0.08,0.236-0.159,0.473-0.239,0.709c-0.005,0.154-0.01,0.307-0.015,0.459
		c-0.087,0.385-0.175,0.771-0.262,1.156c-0.153,0.139-0.204,0.027-0.204,0.354c0,0.077,0,0.155,0,0.232
		c-0.156,0.309-0.312,0.618-0.468,0.926c-0.076,0.001-0.152,0.002-0.229,0.002s-0.153,0-0.23,0c-0.497,0-1.422-1.12-1.627-1.508
		c0.047-0.154,0.095-0.306,0.142-0.458c0.255-0.194,0.439-0.346,0.439-0.818c0-0.023-0.271-0.363-0.348-0.697
		c-0.128-0.062-0.254-0.122-0.381-0.183c-0.257,0.143-0.516,0.285-0.773,0.428c0.194,0.646,0.108,1.168,0.108,1.728
		c0,0.172,0.25,0.512,0.348,0.695c-0.118,0.285-0.079,0.094,0,0.464c-0.182,0.134-0.233,0.022-0.233,0.349c0,0.077,0,0.154,0,0.231
		c0.702,1.255,0.13,0.933,0.375,1.735c-0.185,0.25-0.164,0.302-0.398,0.334c-0.17,0.023-0.208-0.031-0.208,0.151
		c0,0.11,0,0.222,0,0.333c0.044,0.013,0.087,0.027,0.131,0.041c0.246,0.076,0.226,0.047,0.149,0.291
		c-0.014,0.045-0.028,0.089-0.042,0.135c0.045,0.106,0.091,0.215,0.136,0.321c0.104,0.246,0.161,0.239-0.106,0.295
		c-0.092,0.019-0.183,0.038-0.274,0.057c-0.19-0.04-0.38-0.08-0.57-0.119c-0.271-0.372-0.407-0.542-1.05-0.557
		c-0.175-0.217-0.348-0.433-0.522-0.65c-0.132-0.068-0.265-0.137-0.398-0.207c-0.142-0.075-0.127-0.069-0.126-0.229
		c0-0.102,0-0.204,0-0.306c-0.058,0-0.116,0-0.173,0c-0.107,0-0.243,0.01-0.243-0.144c0-0.278,0.193-0.179,0.376-0.141
		c0.09,0.019,0.181,0.038,0.271,0.057c0.077-0.042,0.169-0.081,0.267-0.116c0.23-0.089,0.458-0.265,0.691-0.192
		c0.105,0.032,0.21,0.064,0.314,0.097c0.156-0.087,0.313-0.175,0.469-0.263c0-0.076,0.001-0.151,0.002-0.226
		c0-0.039,0-0.078,0-0.116c0-0.116,0-0.233,0-0.349c-0.388-1.183-0.307-2.923-0.718-3.938c0.051-0.156,0.102-0.312,0.152-0.468
		c-0.242-0.986-0.655-0.604-0.711-1.282c-0.307,0.152,0.096,0.117-0.348,0.117c-0.016,0-0.23-0.114-0.233-0.117
		c-0.196,0.07-0.391,0.142-0.585,0.214c-0.115-0.03-0.231-0.061-0.347-0.091c-0.149,0.085-0.299,0.17-0.449,0.254
		c-0.048,0.222-0.098,0.443-0.147,0.664c-0.312,0.08-0.18,0.12-0.447,0.12c-0.077,0-0.155,0-0.232,0
		c-0.075-0.03-0.149-0.061-0.224-0.091c-0.166-0.066-0.18,0.009-0.312,0.127c-0.57,0.509-0.534,0.733-0.082,1.231
		c0.534,0.587,0.32,0.696,0.224,1.476c-0.298,2.443-0.446,5.337-0.42,7.818c-0.042,0.075-0.084,0.151-0.125,0.226
		c0.007,0.936,0.162,2.032,0.125,2.908c0,0.077,0,0.155,0,0.232c0.588,1.109,0.464,2.391,0.464,3.597
		c-0.069,0.273-0.139,0.545-0.209,0.819c-0.007,0.191-0.014,0.383-0.022,0.575c-0.631,1.316-0.07,0.979-1.51,1.742
		c0,0.077,0,0.154,0,0.231c0,0.006,0.514,1.264,0.566,1.522c0.572,2.777,0.943,4.467,0.943,7.298c0,0.696,0,1.394,0,2.088
		l0.125,0.227l-0.01,1.283c0,0.592,0.055,2.015-0.241,2.547l-0.008,0.465c0.105,0.188,0.133,0.171,0.133,0.469
		c0,0.171,0.25,0.512,0.349,0.696v0.232v0.232c0,0.42-0.464,0.43-0.464,0.929c0,0.563,0.743,0.843,1.161,1.044h0.233
		c0.569,0,2.834-1.69,3.393-2.064c0.646-0.432,1.057-0.81,1.6-1.187c0.15-0.103,1.627-0.996,1.627-1.043
		c0-0.241-0.431-0.327-0.697-0.349l-0.111-0.351l-0.007-0.229v-0.117v-0.347c0.219-0.455-0.034-0.301,0.35-0.581
		c0.009-0.413,0.373-1.252,0.535-1.786c0.215-0.714,0.34-0.982,1.207-1c0.083-0.111,0.166-0.223,0.248-0.334
		c0.459-0.024,0.489-0.083,0.796-0.246c0.078,0,0.155,0,0.232,0c0.215,0,0.949-0.532,1.05-0.691c0.292-0.46,0.243-0.747,0.414-1.328
		c0.203-0.688,0.599-2.08,0.859-2.625c0-0.154,0-0.31,0-0.465c0.167-0.347,0.207-0.801,0.389-1.236
		c0.166-0.397,0.274-0.723,0.425-1.083c0.294-0.703,0.465-1.549,0.813-2.205c0.015-0.673,0.625-2.533,0.83-3.349
		c0.266-1.061,0.656-2.035,0.953-3.11c0.383-1.387,2.384-5.122,2.398-5.728c-0.741-0.062-0.399-0.294-1.045-0.348
		c-0.192-0.285-0.328-0.384-0.556-0.722c-0.311-0.463-0.169-0.478-0.375-0.903c0-0.116,0-0.232,0-0.347
		c0.043-0.076,0.085-0.151,0.127-0.227c-0.003-0.118-0.007-0.237-0.01-0.354c0-0.078,0-0.155,0-0.233
		c0.604-1.141,0.696-2.665,1.742-3.365c0.04-0.478,0.117-0.259,0.117-0.696c0-0.135-1.391-2.047-1.595-2.237
		c-0.603-0.563-0.378-0.161-0.886-0.972c-0.369-0.591-0.276-0.769-0.54-1.318c0-0.116,0-0.232,0-0.349c0-0.27,0-0.542,0-0.813
		C55.002,73.25,54.998,72.978,54.996,72.705L54.996,72.705z M49.315,72.363c0.146-0.548,0.454-0.569,0.58-1.045
		c0.194,0,0.388,0,0.581,0C50.199,71.732,49.731,72.084,49.315,72.363L49.315,72.363z M32.126,72.247
		c0.034-0.423,0.136-1.161,0.58-1.161c0.016,0,0.23,0.114,0.232,0.116C32.693,71.714,32.772,72.192,32.126,72.247L32.126,72.247z
		 M72.426,70.854c0.501-0.042,0.208,0.018,0.581-0.232c0.075,0.234,0.148,0.468,0.222,0.701c-0.042,0.03-0.083,0.062-0.125,0.093
		C72.659,71.124,72.553,71.332,72.426,70.854L72.426,70.854z M55.354,69.229c0,0.163-0.159,0.232-0.348,0.232
		c-0.141,0-0.464-0.521-0.464-0.696c0-0.27,0.024-0.242,0.138-0.294c0.142-0.065,0.11-0.022,0.18,0.124
		c0.032,0.067,0.064,0.134,0.097,0.201c0.017-0.086,0.033-0.175,0.05-0.263C55.241,68.705,55.354,68.799,55.354,69.229
		L55.354,69.229z M47.921,66.792c0.325,0.117,0.31,0.107,0.348,0.58c-0.116,0-0.231,0-0.348,0
		C47.921,67.179,47.921,66.985,47.921,66.792L47.921,66.792z M42.058,67.376c0.018,0.077,0.038,0.153,0.056,0.229
		c0,0.115,0,0.232,0,0.348c0.047,0.152,0.095,0.304,0.142,0.458c-0.207-0.127-1.07-1.541-1.07-1.619
		c0-0.296,0.445-0.456,0.813-0.464C42.018,66.677,42.038,67.026,42.058,67.376L42.058,67.376z M61.044,66.908
		c0.304-0.631,0.195-1.894,0.93-2.089c0.12,0.513,0.313,0.616,0.349,1.044c0.417,0.28,0.349,0.375,0.581,0.812
		c-0.378,0.564-0.471,0.245-0.93,1.162c-0.263,0.526-0.362,1.053-0.581,1.509c0,0.155,0,0.309,0,0.464s0,0.309,0,0.463
		c0,0.117,0,0.232,0,0.348c-0.047,0.153-0.094,0.306-0.141,0.458c-0.178,0.164-0.357,0.328-0.535,0.493
		c-0.172-0.328-0.136,0.073-0.136-0.371c0-0.425,0-0.851,0-1.276c0.042-0.075,0.083-0.151,0.126-0.226
		c-0.01-0.58,0.073-1.829,0.348-2.321C61.052,67.222,61.048,67.064,61.044,66.908L61.044,66.908z M71.962,65.632
		c0.076-0.298,0.176-0.349,0.581-0.349c0.139,0,0.202,0.148,0.253,0.308c0.165,0.511-0.162,0.985-0.138,1.55
		c0,0.078,0,0.154,0,0.231c-0.163,0.308-0.221,0.338-0.233,0.813c-0.173-0.2-0.36-0.434-0.436-0.747
		c-0.039-0.165-0.005-0.169-0.16-0.248c-0.06-0.03-0.119-0.061-0.177-0.09c-0.153-0.076-0.155-0.079-0.312-0.014
		c-0.217,0.089-0.179,0.096-0.178-0.13c0.003-0.451-0.031-1.183,0.312-1.241C71.637,65.687,71.799,65.659,71.962,65.632
		L71.962,65.632z M45.599,63.426c0.521-0.044,1.049-0.358,1.277-0.696c0.116,0.012,0.231,0.026,0.348,0.038
		c0.032,0.144,0.065,0.287,0.096,0.431c0.007,0.115,0.013,0.229,0.021,0.343c0,0.248-0.136,0.335-0.324,0.386
		c-0.345,0.093-0.374-0.008-0.374,0.368c0,0.058,0,0.116,0,0.174c0,0.421-0.028,0.113,0.115,0.232
		c-0.151,0.306-0.115-0.096-0.115,0.348c0,0.387,0,0.773,0,1.161c0,0.348,0,0.696,0,1.044c0.041,0.076,0.083,0.151,0.126,0.226
		c-0.004,0.273-0.008,0.547-0.011,0.819c0.042,0.076,0.084,0.151,0.127,0.227c-0.004,0.079-0.006,0.157-0.01,0.238
		c0,0.115,0,0.232,0,0.348c0.046,0.112,0.091,0.226,0.137,0.34c-0.049,0.077-0.099,0.156-0.147,0.234
		c0.004,0.117,0.007,0.235,0.011,0.354c0,0.039,0,0.077,0,0.116c0,0.116,0,0.232,0,0.348c-0.098,0.204-0.446,1.058-0.465,1.278
		c-0.221,0.147-1.029,1.142-1.161,1.392c0,0.078,0,0.155,0,0.232s0,0.155,0,0.231c0.058,0.111,0.464,0.968,0.464,1.045
		c0,0.231-0.481,0.298-0.697,0.349c-0.074-0.234-0.147-0.468-0.22-0.701c-0.005-0.153-0.008-0.307-0.011-0.461
		c-0.109-0.35-0.218-0.701-0.328-1.051c-0.079-1.288-0.021-2.164-0.021-3.475c0.042-0.076,0.083-0.152,0.126-0.226
		c-0.004-0.195-0.006-0.392-0.01-0.586c0.042-0.075,0.083-0.151,0.125-0.226c-0.013-0.644-0.286-1.125-0.49-1.59
		c-0.245-0.557-0.885-0.943-0.217-1.434c0-0.155,0-0.309,0-0.464c0.134-0.142,0.268-0.284,0.402-0.423
		C44.744,64.319,45.503,63.783,45.599,63.426L45.599,63.426z M33.403,62.033c-0.115,0-0.229,0-0.344-0.001
		c-0.049-0.19-0.097-0.382-0.145-0.573c0.085-0.003,0.171-0.005,0.257-0.006c0.129,0.483,0.052,0.246,0.464,0.463
		c0.078,0,0.154,0,0.233,0c0.193,0,0.387,0,0.58,0c1.004,0.219,1.821,0.567,2.784,0.717c0.229,0.286,0.293,0.317,0.816,0.329
		c0.141,0.209,0.233,0.203,0.233,0.464c0,0.271,0,0.542,0,0.813c0,0.347,0,0.696,0,1.043c-0.042,0.076-0.084,0.151-0.126,0.226
		c0.004,0.196,0.007,0.391,0.009,0.587c0,0.077,0,0.154,0,0.231c-0.079,0.154-0.159,0.308-0.237,0.461
		c0.001,0.079,0.004,0.157,0.006,0.235c0,0.155,0,0.309,0,0.464c0,0.403,0.231,0.177,0.231,0.58c0,0.388,0,0.774,0,1.161
		c0,0.116,0,0.232,0,0.348c0.048,0.152,0.095,0.305,0.142,0.458c0.333,0.136,0.287,0.355,0.672,0.355
		c0.246,0,0.153-0.041,0.464-0.117c0.048-0.203,0.126-0.58,0.349-0.58c0.362,0,1.638,1.701,1.743,2.09c0.115,0,0.231,0,0.347,0
		c0.078,0,0.155,0,0.232,0c0.199,0.345,0.397,0.69,0.596,1.036c0.002,0.751,0.333,1.24,0.333,1.865c0,0.349,0,0.696,0,1.044
		c-0.477,0.04-0.259,0.116-0.697,0.116c-0.472,0-0.209-1.857-1.045-1.857c-0.803,0,0.234,0.67-0.929,0.697
		c-0.046,0.114-0.091,0.227-0.138,0.339c-0.589-0.155-0.7-0.655-1.255-0.804c0-0.154,0-0.31,0-0.464
		c-0.17-0.125-0.697-1.098-0.697-1.161c0-0.178,0.464-0.402,0.464-0.58c0-0.208-0.705-0.954-1.045-1.044
		c0.047-0.502,0.095-1.004,0.143-1.506c-0.008-0.387-0.018-0.775-0.026-1.164c-0.166-0.102-0.332-0.202-0.5-0.303
		c-0.065-0.015-0.132-0.03-0.198-0.044c-0.038,0-0.077,0-0.116,0c-0.224,0-0.206-0.037-0.347-0.116
		c-0.076,0.045-0.152,0.089-0.228,0.134c-0.148,0.594-0.21,0.769-0.47,1.259c-0.903-0.282-1.312,0.348-1.279-1.161
		c-0.152-0.079-0.306-0.158-0.46-0.238c-0.192,0.049-0.385,0.1-0.579,0.148c-0.11,0.082-0.219,0.165-0.328,0.247
		c-0.099-0.398-0.197-0.795-0.296-1.193c0.167-0.082,0.333-0.164,0.499-0.247c0.079,0.002,0.158,0.004,0.235,0.006
		c0.456,0,0.014-0.174,0.697-0.231c0.141-0.209,0.231-0.205,0.231-0.464c0-0.193-0.332-0.378-0.463-0.464
		c-0.046-0.558-0.697-1.497-0.697-1.509c0-0.116,0-0.232,0-0.348c0.073-0.234,0.145-0.468,0.217-0.701
		c0.005-0.153,0.01-0.306,0.015-0.46C33.751,62.438,33.524,62.482,33.403,62.033L33.403,62.033z M72.556,63.642
		c0.108-0.344,0.216-0.688,0.324-1.031c0.005-0.154,0.008-0.308,0.011-0.46c0-0.078,0-0.156,0-0.233
		c0-0.259-0.092-0.254-0.232-0.463c0.063-0.271,0.115-0.343,0.115-0.696c0-0.117,0-0.233,0-0.349c0.079,0,0.156,0,0.233,0
		c0.072,0.234,0.144,0.469,0.216,0.702c0.005,0.076,0.011,0.151,0.017,0.227c0,0.348,0,0.696,0,1.044c0,0.154,0,0.309,0,0.464
		c-0.07,0.146-0.308,0.869-0.349,1.044C72.779,63.807,72.668,63.725,72.556,63.642L72.556,63.642z M56.515,61.801
		c0-0.078,0-0.155,0-0.232c0.134-0.24,0.126-0.254,0.016-0.512c-0.115-0.271-0.205-0.487,0.139-0.577
		c0.065-0.018,0.132-0.035,0.198-0.052c0.78-0.046,1.526,0.113,2.293,0.1c0.085-0.001,0.172-0.003,0.257-0.005
		c0.426,0.105,1.162,0.367,1.162,0.93c0,0.428-0.349,0.453-0.349,0.812c0,0.154,0,0.31,0,0.465c0,0.077,0,0.154,0,0.232
		c0.079,0.153,0.159,0.307,0.239,0.461c-0.089,0.385-0.179,0.771-0.268,1.158C60.1,64.665,60,64.75,59.897,64.835
		c-0.071,0.307-0.144,0.614-0.216,0.92c-0.01,0.152-0.02,0.304-0.03,0.456c-0.105,0.389-0.211,0.778-0.316,1.168
		c-0.011,0.152-0.021,0.304-0.032,0.456c-0.15,0.582-0.298,1.162-0.449,1.744c-0.005,0.154-0.011,0.307-0.016,0.461
		c-0.192,0.344-0.116,1.002-0.116,1.508c0.09,0.346,0.18,0.691,0.269,1.037c0.259,0.225,0.149,0.256,0.516,0.5
		c0.288,0.19,0.439,0.184,0.724,0.321c0.116,0,0.233,0,0.349,0c0.191,0,0.652-0.264,0.812-0.349c0.078,0,0.156,0,0.233,0
		c0.379,0,0.447,0.33,0.581,0.58c0,0.077,0,0.155,0,0.232c0,0.278-0.438,0.833-0.581,1.044c0.151,0.307,0.116-0.096,0.116,0.349
		c0,0.272-1.047,1.238-1.277,1.393c0,0.115,0,0.232,0,0.348c-0.264,0.24-0.528,0.479-0.79,0.72c-0.057-0.146-0.84-1.689-0.951-1.883
		c-0.304-0.53-1.28-1.039-1.28-1.39c0-0.039,0-0.077,0-0.117c0-0.077,0-0.155,0-0.232c-0.079-0.153-0.159-0.307-0.239-0.46
		c0.04-0.118,0.077-0.236,0.116-0.355c0.018-0.959,0.136-1.938,0.123-2.898c0.042-0.076,0.084-0.15,0.126-0.227
		C57.523,65.583,56.515,66.544,56.515,61.801L56.515,61.801z M53.264,60.869c-0.367,0.249-0.949,1.244-1.334,1.689
		c-0.29,0.337-0.418,0.469-0.667,0.842c-0.234,0.352-0.26,0.678-0.787,0.722c0.286-0.427,0.254-0.606,0.464-1.045
		c0-0.077,0-0.155,0-0.232c0-0.301-0.077-0.119-0.115-0.58c0.497-0.743,0.625-1.764,1.277-2.554c0.365-0.132,0.427-0.469,0.47-0.905
		c0.192-0.047,0.382-0.096,0.574-0.144c0.549,1.145,0.014,1.833,1.626,2.209c-0.045,0.531-0.142,0.568-0.697,0.581
		c-0.077-0.155-0.157-0.31-0.232-0.464C53.65,60.95,53.458,60.909,53.264,60.869L53.264,60.869z M66.736,60.64
		c0.037-0.456,0.3-1.286,0.696-1.393c0.036,0.428,0.037,0.429,0.464,0.465c-0.01,0.467-0.277,0.928-0.697,0.928
		C67.045,60.64,66.89,60.64,66.736,60.64L66.736,60.64z M61.161,56.695c0.461,0.123,0.604,0.534,0.813,0.928
		c0,0.079,0,0.156,0,0.232c0,0.078,0,0.155,0,0.233c-0.047,0.152-0.094,0.305-0.142,0.457c-0.108,0.04-0.218,0.078-0.325,0.117
		c-0.115-0.037-0.23-0.074-0.346-0.109C61.161,57.933,61.161,57.313,61.161,56.695L61.161,56.695z M64.76,57.623
		c0,0.117,0,0.232,0,0.349c-0.588,0.394-1.058,1.786-1.431,2.515c-0.179,0.351-1.472,2.36-1.472,2.476
		c0,0.124,1.325,1.036,1.51,1.16c0.537-0.8,0.859-2.275,1.277-3.25c0.211-0.493,0.456-1.042,0.655-1.549
		c0.191-0.481,0.442-1.323,0.623-1.701c0-0.115,0-0.231,0-0.347c0-0.266-0.04-0.136-0.117-0.465
		C65.084,56.87,65.296,57.265,64.76,57.623L64.76,57.623z M72.194,56.811c0-0.22,0.439-0.812,0.697-0.812
		c0.298,0,0.696,1.314,0.696,1.741c0,0.349,0,0.696,0,1.044c-0.302-0.081-1.394-1.512-1.394-1.857
		C72.194,56.888,72.194,56.849,72.194,56.811L72.194,56.811z M56.388,56.66c-0.269,0.082-0.538,0.165-0.808,0.248
		c-0.076-0.032-0.151-0.065-0.227-0.097c-0.369,0.552-0.54,1.457-0.929,1.742c0.272,0.513,0.067,0.308,0.586,0.589
		c0.076-0.042,0.151-0.083,0.227-0.125c0.077,0,0.154,0,0.233,0c0.364,0.011,0.56-0.119,0.922-0.07
		c0.273,0.023,0.546,0.046,0.818,0.07c0.155,0,0.31,0,0.465,0c0-0.154,0-0.309,0-0.463c-0.311,0.073-0.219,0.116-0.465,0.116
		c-0.317,0-0.364-0.534-0.907-0.589c-0.046-0.112-0.091-0.226-0.138-0.339c0-0.077,0-0.154,0-0.232
		c0.001-0.077,0.003-0.153,0.003-0.231C56.244,57.071,56.315,56.865,56.388,56.66L56.388,56.66z M31.661,55.534
		c0.484-0.041,0.939-0.456,1.394-0.696c0,0.271,0,0.542,0,0.812c0.041,0.076,0.083,0.151,0.125,0.226
		c-0.003,0.118-0.006,0.236-0.01,0.354c0,0.265-0.442,0.722-0.581,0.928c-0.077,0-0.154,0-0.231,0c-0.038,0-0.078,0-0.117,0
		c-0.078,0-0.155,0-0.233,0c-0.127,0.225-0.256,0.45-0.384,0.675c-0.065,0.007-0.13,0.014-0.196,0.021
		c-0.049-0.385-0.097-0.771-0.145-1.156c-0.067-0.002-0.136-0.003-0.203-0.004C31.101,55.789,31.467,56.258,31.661,55.534
		L31.661,55.534z M50.36,46.25c0-0.225-0.038-0.208-0.118-0.35c0.477,0.172,0.703,1.08,0.931,1.509c0,0.077,0,0.155,0,0.232
		c0,0.038,0,0.077,0,0.116c0,0.272-0.193,0.463-0.465,0.463c-0.155,0-0.31,0-0.465,0c0-0.231,0-0.463,0-0.695
		c0.022-0.312,0.045-0.623,0.065-0.935C50.326,46.478,50.342,46.363,50.36,46.25L50.36,46.25z M43.275,44.972
		c0.762-0.015,0.508-0.205,1.045-0.348c0,0.115,0,0.232,0,0.348c-0.02,0.351-0.041,0.7-0.061,1.05
		c-0.018,0.114-0.037,0.229-0.055,0.344c0,0.078,0,0.154,0,0.232c-0.047,0.113-0.093,0.226-0.139,0.339
		c-0.394-0.089-0.525-0.224-1.024-0.224c-0.116,0-0.232,0-0.348,0c-0.032-0.31-0.063-0.621-0.095-0.931
		c0.04-0.112,0.078-0.225,0.118-0.337C42.902,45.288,43.089,45.13,43.275,44.972L43.275,44.972z M48.966,39.518
		c0-0.063,1.173-1.044,1.277-1.044c0.262,0,0.773,2.112,0.931,2.437c0,0.155,0,0.311,0,0.465c0,0.192,0,0.386,0,0.58
		s0,0.387,0,0.581c-0.048,0.231-0.095,0.461-0.143,0.692c-0.555-0.06-0.606-0.773-0.877-1.183
		C49.886,41.64,48.966,39.972,48.966,39.518L48.966,39.518z M32.772,2.272v0.115V2.62c-0.377,0.253-0.258,0.191-0.464,0.581v0.232
		l-0.172,1.622l-0.127,0.226v1.277v0.231c0.289,0.544,0.152,0.408,0.671,0.702l0.143,0.575c0.362,1.51,0.239,3.296,0,5.107
		c-0.466,8.21,0.163,15.602,0.348,23.329c0,0.077,0,0.154,0,0.231c0,0.116,0,0.232,0,0.348c-0.252,0.527-0.89,1.396-0.929,1.857
		c-0.078,0-0.155,0-0.233,0c-0.072,0.872-0.928,1.629-0.928,1.973c0,0.117,0,0.233,0,0.348c0,0.378,0.101,0.088,0.232,0.577
		c0.319,0.043,0.638,0.086,0.958,0.129c-0.131,0.424-0.262,0.848-0.392,1.272c0.046,0.153,0.092,0.308,0.139,0.462
		c-0.079,0.309-0.156,0.616-0.233,0.925c0.075,0.425,0.149,0.852,0.224,1.277c0.147,0.078,0.385,0.232,0.581,0.232
		c0.497,0,0.708-0.532,0.813-0.928c0.4,0.107,0.422,0.201,0.465,0.696c0.193,0,0.387,0,0.58,0c0.354,0,0.395,0.202,0.465,0.465
		c0.895,0.074,1.005,1.625,2.09,1.625c0.27-0.017,0.539-0.034,0.809-0.051c0.306-0.02,0.613-0.04,0.92-0.061
		c0.06,0.133,0.119,0.268,0.18,0.402c0.179,0.166,0.359,0.331,0.538,0.496c0.152,0.047,0.306,0.094,0.458,0.143
		c0.592-0.284,0.739-0.261,0.814-1.161c0.116,0,0.232,0,0.348,0c0.354,0,0.468-0.111,0.697-0.231c0-0.078,0-0.156,0-0.233
		c0-0.153,0-0.309,0-0.464c0.285,0.002,0.572,0.004,0.859,0.008c-0.096,0.502-0.193,1.004-0.288,1.507
		c0.042,0.075,0.084,0.151,0.126,0.226c0,0.116,0,0.231,0,0.349c0,0.618,0,1.238,0,1.856c0,0.172,0.25,0.512,0.348,0.696
		c0,0.079,0,0.155,0,0.232c0,0.387,0,0.774,0,1.161c0.008,0.192,0.016,0.383,0.024,0.575c0.069,0.311,0.139,0.622,0.208,0.933
		c-0.337,0.639-0.092,0.291-0.697,0.581c-0.116,0-0.232,0-0.348,0c-0.153,0.015-0.306,0.031-0.458,0.046
		c-0.273,0.022-0.546,0.047-0.818,0.069c0-0.154,0-0.31,0-0.464c0.077,0,0.155,0,0.232,0c0-0.155,0-0.309,0-0.463
		c0-0.223-0.375-1.206-0.454-1.389c0.074-0.234,0.148-0.467,0.222-0.7c-0.101-0.189-0.486-0.929-0.697-0.929
		c-0.368,0-0.396,0.285-0.47,0.607c-0.185-0.035-0.369-0.071-0.555-0.105c-0.123,0.065-0.247,0.13-0.369,0.195
		c0,0.078,0,0.155,0,0.232c0,0.465,0.313,0.28,0.667,0.458c-0.033,0.206-0.067,0.411-0.1,0.616c-0.186-0.085-0.372-0.17-0.558-0.256
		c-0.122,0.153-0.244,0.309-0.367,0.464c0.041,0.075,0.083,0.15,0.125,0.226c-0.143,0.119-0.116-0.189-0.116,0.231
		c0,0.233,0,0.465,0,0.697c0,0.077,0,0.155,0,0.232c-0.644,1.214-1.212,2.495-1.859,3.714c0,0.077,0,0.155,0,0.232
		c0,0.444,0.036,0.042-0.132,0.383c-0.266-0.129-0.531-0.256-0.796-0.383c-0.078,0-0.155,0-0.233,0c-0.154,0-0.309,0-0.463,0
		c-0.272,0-0.465-0.192-0.465-0.464c0-0.039,0-0.078,0-0.116c-0.003-0.155-0.004-0.308-0.006-0.462
		c-0.041-0.118-0.083-0.237-0.124-0.355c0.043-0.152,0.087-0.307,0.13-0.459c0.213-0.057,1.87-1.283,2.2-1.506
		c-0.038-0.112-0.075-0.225-0.115-0.337c-0.152-0.043-0.305-0.086-0.459-0.13c0.152-0.568,0.742-0.603,1.161-1.393
		c-0.516,0.043-0.985,0.585-1.307,0.899c-0.135,0.132-0.228,0.183-0.317,0.263c-0.219,0.195-0.031,0.094-0.258,0.322
		c-0.234,0.235-0.458,0.255-0.879,0.25c-0.047-0.153-0.095-0.305-0.142-0.458c0.06-0.26,0.116-0.267,0.116-0.58
		c0-0.079,0-0.155,0-0.232c0.538-0.284,1.012-0.685,1.665-1.005c0.42-0.208,1.373-0.88,1.591-1.202
		c-0.04-0.192-0.08-0.385-0.12-0.579c-0.154,0-0.31,0-0.465,0c-0.258,0-0.985,0.929-1.975,1.161
		c-0.119,0.445-0.188,0.345-0.696,0.464c-0.007-0.504-0.014-1.007-0.02-1.51c0.078-0.799-0.004-1.92,0.274-2.678
		c-0.046-0.112-0.092-0.226-0.138-0.34c0-0.116,0-0.231,0-0.347c0-0.225-0.207-0.464-0.348-0.464c-0.234,0-0.484,0.513-0.555,0.702
		c-0.236,0.949-0.26,2.163-0.26,3.128c0,0.232,0,0.464,0,0.696c0.004,0.273,0.007,0.546,0.011,0.818
		c-0.143,0.257-0.126,0.396-0.126,0.691c0,0.261-0.092,0.255-0.232,0.465c-0.983,0.081-1.913,1.603-2.904,1.625
		c-0.134-0.502-0.718-1.248-1.004-1.782c-0.342-0.639-0.671-1.102-1.007-1.777c-0.369-0.734-0.506-1.153-0.933-1.854
		c-0.496-0.813-0.435-1.431-0.771-2.131c-0.599-2.155-0.629-4.505-0.722-6.768c0.073-0.095,0.147-0.19,0.222-0.286
		c0.231-0.267-0.628-1.106-1.041-1.619c-0.436-0.467-0.5-0.903-1.246-1.077c-0.128-0.608-0.899-0.961-1.404-1.283
		c0.243-0.433-0.235-2.032-0.216-2.783c-0.079-0.153-0.158-0.307-0.238-0.462c-0.078,0-0.155,0-0.231,0
		c-0.353,0-0.396,0.203-0.465,0.465c-0.361-0.096-0.505-0.374-0.563-0.758c-0.02-0.144-0.002-0.154-0.119-0.241
		c-0.366-0.271-0.406-0.454-0.928-0.69c-0.092-0.05-0.166-0.027-0.222,0.07c-0.131,0.158-0.157,0.362-0.152,0.581
		c0.104,0.186,0.126,0.247,0.126,0.458c0,0.115,0,0.232,0,0.349c0,0.115,0.002,0.231,0.003,0.346
		c0.154,0.388,0.308,0.775,0.462,1.162c0,0.117,0,0.233,0,0.348c0,0.077,0,0.155,0,0.232c0.08,0.164,0.116,0.192,0.116,0.465
		c0.007,0.069,0.015,0.138,0.022,0.208c0.069,0.084,0.141,0.17,0.209,0.255c0.078,0,0.155,0,0.232,0c0.355,0,0.814,0.09,0.814,0.464
		c0,0.193,0,0.387,0,0.58c0,0.175-0.324,0.695-0.464,0.695c-0.352,0-0.52-0.928-1.046-0.928c-0.249,0-0.264,0.019-0.464,0.117
		c-0.085-0.127-0.419-0.58-0.581-0.58c-0.218,0-0.348,0.427-0.348,0.696c0.001,0.495,0.004,0.99,0.007,1.484
		c0.08,0.24,0.305,0.094,0.458,0.141c0,0.078,0,0.155,0,0.232c0.013,1.006-0.349,2.002-0.349,3.018
		c-0.008,0.191-0.016,0.383-0.022,0.574c-0.07,0.273-0.14,0.546-0.209,0.819c0,0.115,0,0.232,0,0.348
		c-0.002,0.115-0.004,0.231-0.005,0.347c-0.076,0.193-0.152,0.388-0.229,0.582c0,0.116,0,0.232,0,0.348c0,0.116,0,0.232,0,0.35
		c-0.008,0.112-0.018,0.226-0.027,0.338c-0.146,0.506-0.291,1.013-0.436,1.517c0,0.155,0,0.31,0,0.465
		c0.004,0.312,0.007,0.623,0.01,0.936c-0.042,0.074-0.083,0.149-0.125,0.226c0,0.193,0,0.385,0,0.579c0,0.155,0,0.31,0,0.465
		c-0.003,0.096,0.068,0.177,0.096,0.277c0.098,0.358,0.172,0.767,0.601,0.767c0.075-0.001,0.151-0.002,0.227-0.003
		c0.079-0.154,0.159-0.308,0.238-0.462c0-0.526-0.242-0.932-0.232-1.393c0.002-0.092,0.005-0.184,0.008-0.276
		c0.001-0.064-0.013-0.116-0.041-0.156c-0.009-0.016-0.019-0.031-0.027-0.047c-0.01-0.018-0.02-0.036-0.03-0.054
		c-0.027-0.042-0.031-0.09-0.025-0.141c0-0.201,0-0.402,0-0.602c0-0.295,0.25-0.696,0.581-0.696c0.078,0,0.155,0,0.231,0
		c0.286,0,0.847-0.525,1.019-0.723c0.353-0.407,0.277-0.802,0.492-1.25c0.01-0.152,0.021-0.304,0.032-0.456
		c0.105-0.389,0.211-0.779,0.316-1.169c0.009-0.152,0.018-0.305,0.026-0.457c0.185-0.739,0.369-1.476,0.554-2.212
		c0-0.116,0-0.231,0-0.348c-0.001-0.079-0.004-0.157-0.006-0.235c0.068-0.158,0.136-0.313,0.204-0.47
		c0.091-0.422,0.183-0.844,0.273-1.265c0.037-0.118,0.074-0.233,0.11-0.351c0.152-0.179,0.305-0.137,0.459,0.003
		c0.155,0.119,0.288,0.25,0.249,0.467c-0.042,0.075-0.085,0.151-0.126,0.226c-0.091,0.31-0.06,0.577-0.06,0.888
		c0.772,3.847,0.292,8.362,0.292,12.343c0,0.116,0,0.232,0,0.348c0.003,0.077,0.004,0.153,0.005,0.23
		c0.038,0.116,0.075,0.233,0.111,0.351c-0.255-0.187-0.796-1.378-0.982-2.027c-0.058-0.201-0.028-0.257-0.188-0.385
		c-0.255-0.206-0.302-0.371-0.653-0.451c-0.24-0.055-0.278-0.089-0.259,0.161c0.027,0.365,0.112,0.487,0.346,0.654
		c0.033,0.023,0.069,0.048,0.11,0.075c0,0.078,0,0.155,0,0.232c0,0.434,0.825,2.527,1.045,2.786c0.53,0.623,0.964,1.684,1.742,2.205
		c0.484,0.604,1.342,1.341,1.51,1.509c0.325,0.484,0.333,0.644,0.581,1.16c0,0.117,0,0.232,0,0.35c0,0.115,0,0.231,0,0.347
		c0,0.156,0,0.31,0,0.465c0.381,0.794,0.448,1.948,0.93,2.901c0.235,0.468,0.374,0.847,0.67,1.303c0.212,0.328,0.84,0.89,0.84,1.134
		c0,0.079,0,0.155,0,0.233c-0.004,0.272-0.007,0.546-0.011,0.818c0.042,0.075,0.085,0.15,0.126,0.226c0,0.077,0,0.154,0,0.232
		c-0.001,0.115-0.003,0.231-0.005,0.346c-0.077,0.194-0.152,0.389-0.228,0.583c-0.001,0.154-0.003,0.308-0.005,0.463
		c-0.075,0.193-0.151,0.387-0.227,0.582c0,0.077,0,0.155,0,0.232c0,0.585-0.213,1.426-0.458,2.095
		c-0.119,0.323-0.24,0.521-0.24,0.864c0,0.097,0,0.194,0,0.291c0,0.194,0,0.387,0,0.58c0.002,0.078,0.005,0.154,0.006,0.23
		c0.042,0.104,0.084,0.209,0.126,0.315c0.266,0.128,0.532,0.256,0.796,0.383c0.078,0,0.155,0,0.233,0c0.117,0,0.232,0,0.348,0
		c0.117,0,0.232,0,0.349,0c0.283-0.136,1.509-0.676,1.509,0c0,0.039,0,0.078,0,0.116c0,0.079,0.002,0.159,0.003,0.239
		c-0.118,0.037-0.235,0.074-0.351,0.11c-0.037,0.136-0.118,0.316-0.118,0.348c0,0.198,0.155,0.434,0.233,0.58
		c0,0.078,0,0.155,0,0.233c0,0.038,0,0.077,0,0.116c0,0.077,0,0.155,0,0.232c-0.402,0.759-0.506,1.639-0.929,2.438
		c0,0.077,0,0.154,0,0.232c0,0.077,0,0.155,0,0.231c-0.288,0.543-0.775,1.78-0.928,2.438c0.411,0.777,1.011,0.968,1.355,1.662
		c0.682,1.373,1.234,2.612,1.431,3.909c-0.003,0.272-0.007,0.545-0.01,0.818c0.042,0.076,0.084,0.15,0.125,0.226
		c0,0.193,0,0.387,0,0.581c0.009,0.191,0.016,0.382,0.024,0.574c0.552,2.158,0.674,4.734,0.674,6.969
		c0.003,0.698,0.007,1.396,0.01,2.096c-0.042,0.076-0.085,0.15-0.125,0.226c0,0.503,0,1.005,0,1.508c0,0.117,0,0.231,0,0.348
		c0.153,0.32,0.254,0.609,0.42,0.972c0.155,0.335,0.386,0.435,0.624,0.885c0,0.078,0,0.155,0,0.231
		c-0.003,0.197-0.006,0.392-0.01,0.587c0.042,0.075,0.084,0.151,0.125,0.226c0,1.174-0.287,3.132,0.233,4.062
		c-0.004,0.195-0.008,0.391-0.01,0.585c0.042,0.076,0.084,0.151,0.126,0.227c0.01,0.191,0.018,0.383,0.028,0.574l0.32,1.398
		l-0.01,0.586l0.127,0.227l-0.01,0.469l0.125,0.227l0.023,0.691l0.208,0.817v0.58v0.349v0.349c-0.156,0.325-0.05,0.58-0.465,0.58
		H33.52h-0.233c-0.604,0.32-0.488,0.085-0.812,0.697v0.231v0.117l0.02,0.342l0.096,0.469c-0.835-0.223-2.146-2.668-3.02-2.902
		c-0.072-0.311-0.348-0.782-0.348-1.043l0.064-0.233l-0.044-0.479c-0.032-0.334-0.11-0.166-0.319,0.022
		c-0.211,0.189-0.413,0.397-0.666,0.537c-0.518,0.285-0.921,0.291-1.358,0.5h-0.465c-0.537,0.258-3.013,1.228-3.581,1.296
		l-0.375,0.42l-0.457,0.142h-0.349l-0.819,0.01l-0.226-0.126l-1.399-0.01l-0.227,0.126h-1.626c-0.589,0-0.683-0.158-0.82,0.444
		l-1.038,0.367h-0.348l-0.239-0.01l-0.226,0.127h-0.232l-0.703-0.011l-0.226,0.127h-0.35c-0.443,0-0.042,0.035-0.349-0.116
		c-0.554,0.481-1.21,1.041-1.988,1.262c-0.691,0.196-1.854,0.553-2.424,0.826H7.968H7.853H7.621
		c-0.43,0.228-0.979,0.294-1.284,0.459c-0.153,0.083-0.914,0.703-1.039,0.703c-0.161,0-0.278-0.243-0.344-0.334l-0.702,0.217H3.787
		H3.206l-0.459,0.015l-0.701,0.217H1.581c-0.377,0-0.088,0.101-0.581,0.232v0.348c0,0.268,0.081,0.35,0.348,0.35l0.339,0.001
		l0.141,0.78l0.567,0.263h0.232h0.348l0.231-0.004l0.793-0.353l0.138-0.34h0.232H4.6c0.206,0.388,0.569,0.577,0.697,0.929h0.348
		c0.164,0,3.602-1.709,3.602-1.857v-0.348c-0.096-0.199-0.295-0.614-0.342-0.781l1.377-0.268l-0.455,1.049v0.348l-0.019,0.245
		l0.37,0.552l0.346,0.132c0.142-0.08,0.125-0.116,0.349-0.116h0.117h0.231c0.618-0.922,2.207-1.769,3.255-2.307l1.74-0.247h0.348
		c-0.045,0.535-0.094,0.317-0.359,0.703l0.127,0.225c-0.553,1.044-0.729,0.632-1.161,1.277h-0.349
		c-0.336,0.504-0.597,0.534-0.93,1.161v0.232v0.232c0,0.482,0.727,0.696,1.278,0.696v-0.233h0.348
		c0.055-0.206,0.6-0.731,0.812-1.044c0.236-0.35,0.59-0.806,1.046-0.927v-0.465c0.533-0.142,1.597-1.234,2.059-1.656
		c0.344-0.313,1.798-1.441,2.238-1.478c-0.078,0.929-1.626,1.636-1.626,2.205v0.232v0.232c0.365,0.193,0.604,0.192,0.93,0.348h0.348
		c0.019,0,1.663-1.506,1.742-1.625h0.35c0.357-0.532,0.664-0.403,0.812-0.812h0.349v-0.233c0.44-0.036,0.871-0.432,1.514-0.579
		l-0.121,0.579c-0.328,0.219-0.941,0.948-1.045,1.393c-0.628,0.167-1.427,1.649-2.302,1.865l-0.138,0.34
		c-0.02,0.324,1.017,1.393,1.045,1.393c0.266,0,0.135-0.04,0.465-0.116c0.045-0.556,0.094-0.421,0.568-0.592
		c0.462-0.168,0.3-0.293,0.824-0.337c0.507-0.756,1.846-1.144,1.975-1.625c0.389-0.09,0.61-0.188,0.813-0.464h0.465l0.004-0.21
		l1.156-0.253v0.348c0,0.266-0.558,0.916-0.724,1.134c-0.379,0.493-0.415,0.773-0.669,1.304c-0.154,0.443,0.304,1.505,0.581,1.625
		c0.511,0.042,0.508,0.232,0.812,0.232h0.582c0.334-0.159,1.702-0.454,2.191-0.595c0.355-0.102,1.799-0.534,2.104-0.681h0.465h0.349
		l0.237,0.01l0.228-0.127c0.479,0.231,0.96,0.292,1.509,0.581H37.7c0.327,0,0.215-0.05,0.359-0.187l1.499-0.394h0.349l0.342-0.021
		l1.401-0.441c1.106,0,2.274,0.348,3.483,0.348c0.47,0,0.052,0.021,0.23-0.111l0.346,0.088l0.818-0.209h0.35h0.231l0.587,0.01
		l0.227-0.126l0.586-0.01l0.227,0.126h0.465c0.429,0.206,0.566,0.252,0.671-0.193l-0.323-0.272
		c-0.888-0.019-1.751-0.579-2.206-0.579l-0.372-0.009l0.138-0.34c-0.098-0.113-0.231-0.204-0.231-0.463
		c0-0.204,0.507-0.628,0.696-0.697c0.046-0.545,1.059-1.395,1.42-1.83c0.387-0.463,1.468-1.275,1.6-1.768
		c0.735-0.171,0.664-0.684,1.159-1.046c0.265-0.195,0.957-0.82,1.047-1.159c0.472-0.039,0.819-0.167,0.93-0.581l0.308-0.025
		l0.272-0.323c-0.056,0.678-0.79,0.798-0.814,1.855l-0.463,0.232c-0.105,1.271-2.439,1.994-2.439,3.135
		c0,0.445,0.339,0.459,0.465,0.928h0.464c0.591,0,3.857-4.695,4.646-5.223c-0.203,0.756-0.744,0.682-0.813,1.508
		c-0.361,0.242-0.534,0.373-0.581,0.929h-0.232v0.349c0,0.354,0.739,1.044,1.045,1.044h0.58c0.054-0.204,0.769-1.121,0.957-1.364
		c0.275-0.356,0.683-1.068,1.134-1.189v-0.349c0.54-0.143,0.103-0.182,0.696-0.232v-0.348c0.467-0.039,0.538-0.307,0.904-0.607
		c0.36-0.292,0.589-0.425,0.955-0.669c-0.086,0.324-1.043,1.68-1.279,2.087c-0.182,0.314-1.044,2.078-1.044,2.439
		c0,0.344,0.308,0.579,0.471,0.822l0.226-0.125v0.231H60c0.317-1.361,1.177-2.445,2.207-3.133c0-1.194,2.112-1.427,2.207-2.554
		h0.465c0.318-0.475,2.071-1.574,2.787-1.741c-0.168,0.631-0.646,0.531-0.813,1.16c-0.717,0.06-1.329,1.155-1.932,1.552
		c-0.532,0.352-1.382,1.274-1.669,1.814c0.129,0.552,0.017,0.65,0.581,0.696c0.076,0.208,0.085,0.349,0.465,0.349
		c0.281,0,1.567-1.348,1.898-1.584c0.466-0.332,1.682-1.174,1.934-1.549h0.232h0.232c0.389-0.206,0.717-0.452,1.278-0.464
		c-0.511,0.484-1.662,1.612-1.976,2.206v0.231v0.232c0.332,0.625,0.58,0.49,0.697,0.929h0.581c0.334,0,0.735-0.787,1.841-0.827
		l0.25-0.334c0.519-0.042,0.8-0.441,1.393-0.581c0.105,0.292,0.668,1.162,1.046,1.162h2.09l1.632,0.01l0.226-0.126h1.161l0.23-0.005
		l0.351-0.11c0.132-0.494,0.232-0.203,0.232-0.581v-0.118c0-0.278-0.188-0.341-0.355-0.554l-0.458-0.142h-0.348h-0.348l-0.82,0.011
		l-0.226-0.126h-0.465c-0.19,0-0.348-0.068-0.348-0.232c0-0.016,0.348-0.476,0.348-0.812c0-0.267-0.039-0.136-0.116-0.465
		l0.466,0.022l1.161-0.137h0.231l0.459-0.031l0.348-0.051c0.255-0.037,0.206-0.019,0.309-0.238c0.095-0.204,0.162-0.071,0.162-0.377
		l-0.006-0.23l-0.126-0.314l-0.609-0.293c-0.295-0.143-0.11-0.234,0.027-0.503c0.213-0.421,0.44-0.907,0.604-1.379
		c0.126-0.367,0.168-0.391-0.08-0.676c-0.051-0.058-0.103-0.116-0.153-0.175c-0.113-0.128-0.094-0.145-0.254-0.087
		c-0.075,0.028-0.15,0.056-0.225,0.083c-0.056-0.023-0.112-0.047-0.169-0.069c-0.162-0.065-0.166-0.066-0.323,0
		c-0.317,0.134-0.367,0.101-0.717,0.452c-0.363,0.366-0.288,0.59-0.848,0.628c-0.084-0.228-0.172-0.457-0.256-0.686
		c-0.684-0.056-0.242-0.231-0.696-0.231c-0.156,0-0.31,0-0.465,0c-0.041-0.487-0.466-0.816-0.696-1.161
		c-0.476-0.011-0.506-0.069-0.813-0.232c-0.25,0.132-0.626,0.464-0.813,0.464c-0.039,0-0.077,0-0.116,0
		c-0.404,0-0.177-0.232-0.581-0.232c-0.097,0-0.194,0-0.291,0c-0.315,0-0.257-0.039-0.325,0.249
		c-0.039,0.159-0.082,0.12-0.082,0.447c0,0.444,0.036,0.042-0.116,0.347c-0.348-0.077-0.697-0.155-1.046-0.231
		c-0.116-0.158-1.506-0.828-1.754-0.917c-0.652-0.236-1.504-0.432-2.079-0.708c-0.117,0-0.232,0-0.348,0c-0.426,0-0.852,0-1.278,0
		c-0.152,0.011-0.306,0.021-0.458,0.032c-0.195,0.027-0.392,0.056-0.586,0.085c0.101-0.379,0.581-0.924,0.581-1.161
		c0-0.232,0-0.464,0-0.696c-0.086-0.003-0.172-0.004-0.258-0.007c0.047-0.152,0.095-0.305,0.142-0.457c0-0.117,0-0.233,0-0.35
		c0-0.077,0-0.153,0-0.231c-0.12-0.228-0.929-1.346-0.929-1.393c0-0.042,0.423-1.306,0.465-1.393c0-0.115,0-0.232,0-0.348
		c0-0.078,0-0.155,0-0.232c0.257-0.484,0.877-1.923,0.93-2.554c0.077,0,1.492-2.348,1.646-2.792
		c-0.046-0.114-0.091-0.228-0.137-0.34c0.001-0.003,0.115-0.217,0.115-0.233c0-0.116,0-0.231,0-0.348
		c-0.156-0.325-0.155-0.565-0.348-0.927c0-0.079,0-0.156,0-0.234c-0.008-0.589,0-1.038,0-1.624c0-0.039,0-0.078,0-0.117
		c-0.003-0.272-0.006-0.546-0.01-0.819c0.042-0.075,0.084-0.151,0.126-0.226c-0.019-1.126,0.548-2.61,0.116-3.482
		c0.188-0.138,0.544-0.599,0.784-0.841c0.409-0.413,0.302-0.899,0.725-0.899c0.04,0,0.078,0,0.116,0c0.077,0,0.155,0,0.232,0
		c0.251-0.134,0.582-0.203,0.582-0.58c-0.005-0.155-0.011-0.308-0.016-0.46c-0.072-0.234-0.145-0.468-0.217-0.701
		c0-0.155,0-0.31,0-0.465c0.003-0.233,0.007-0.468,0.01-0.702c-0.042-0.075-0.084-0.151-0.126-0.226c0-0.464,0-0.928,0-1.393
		c0-0.038,0-0.077,0-0.116c0.001-0.081,0.002-0.16,0.003-0.239c-0.118-0.037-0.235-0.074-0.351-0.11
		c-0.02-0.225,0.006-0.463-0.233-0.463c-0.168,0-1.246,0.696-1.625,0.696c-0.313,0-0.72-0.324-0.813-0.581
		c-0.553,0-1.736,0.588-2.207,0.813c-0.116,0-0.233,0-0.347,0c-0.04,0-0.078,0-0.117,0c-0.116,0-0.232,0-0.348,0
		c-0.396-0.189-0.499-0.106-0.846-0.433c-0.399-0.377-0.189-0.484-0.665-0.613c0-0.154,0-0.308,0-0.463
		c0.381-0.139,0.473-0.581,0.697-0.581c0.297,0,0.281,0.028,0.459,0.098c0.197-0.075,0.395-0.148,0.592-0.223
		c0.076,0.042,0.15,0.084,0.227,0.125c0.802-0.424,1.374-1.069,1.898-1.816c0.444-0.629,1.771-1.2,1.934-1.898
		c-0.319-1.364-0.547-0.923-1.05-1.853c-0.24-0.443-0.393-1.745-1.157-1.745c-0.451,0-0.614,0.74-1.278,0.812
		c0-0.192,0-0.387,0-0.579c0-0.033,1.038-2.527,1.183-2.794c-0.046-0.113-0.092-0.226-0.137-0.339c0-0.078,0-0.155,0-0.232
		c0-0.313,0.218-0.492,0.441-0.583c0.046-0.348,0.093-0.694,0.14-1.042c0-0.077,0-0.155,0-0.232
		c0.002-0.153,0.006-0.307,0.009-0.461c0.117-0.351,0.233-0.702,0.349-1.053c-0.042-0.077-0.084-0.151-0.125-0.226
		c0.371-0.134,0.461-0.75,0.622-1.12c0.211-0.489,0.278-0.924,0.656-1.202c0.239,0.498-0.077,0.436,0.465,0.581
		c0.044,0.539,0.092,0.384,0.463,0.58c0.077,0,0.155,0,0.233,0c0.078,0,0.155,0,0.233,0c0.376,0,0.087-0.1,0.605-0.229
		c-0.046,0.27-0.093,0.539-0.142,0.809c0,0.116,0,0.232,0,0.348c-0.01,0.153-0.02,0.305-0.03,0.458
		c-0.028,0.196-0.057,0.391-0.085,0.586c-0.805,0.017-0.836,0.158-1.123,0.735c-0.25,0.504-0.464,0.816-0.699,1.275
		c-0.428,0.846-0.876,1.686-1.315,2.516c0.473,0.893,0.391,0.443,1.163,0.813c0.142-0.083,0.283-0.169,0.425-0.253
		c0.206-0.418,0.413-0.838,0.619-1.258c0-0.115,0-0.231,0-0.348c0.23-0.436,0.183-0.675,0.721-0.81
		c-0.046,0.346-0.093,0.694-0.139,1.042c-0.021,0.192-0.042,0.384-0.06,0.576c-0.01,0.375-0.021,0.749-0.032,1.125
		c0.149,0.094,0.298,0.188,0.446,0.283c0.08-0.048,0.161-0.095,0.24-0.144c0.111,0.083,0.223,0.166,0.334,0.249
		c0.431-0.586,0.44,0.215,0.74-1.001c0.133-0.542,0.321-1.007,0.422-1.435c0.115,0,0.231,0,0.347,0c0-0.077,0-0.155,0-0.232
		c0.232,0,0.465,0,0.697,0c-0.014,0.94-0.028,1.88-0.042,2.821c-0.141-0.205-0.282-0.412-0.423-0.616
		c-0.311-0.075-0.218-0.116-0.464-0.116c-0.438,0-1.052,2.011-1.277,2.438c0,0.078,0,0.154,0,0.231
		c0.003,0.08,0.007,0.159,0.009,0.239c-0.041,0.075-0.084,0.15-0.125,0.226c0,0.193,0,0.387,0,0.581c0,0.113,0.447,0.58,0.697,0.58
		c0.039,0,0.077,0,0.117,0c0.076-0.001,0.153-0.004,0.229-0.006c0.109-0.039,0.217-0.078,0.326-0.116
		c0.047-0.152,0.094-0.305,0.141-0.457c0-0.117,0-0.233,0-0.348c0-0.078,0-0.155,0-0.232c0.023-0.048,0.577-1.926,0.581-1.974
		c0.07,0.001,0.139,0.001,0.208,0.002c0.046,0.309,0.093,0.618,0.14,0.927c0,0.271,0,0.542,0,0.812c0,0.117,0,0.233,0,0.349
		c-0.003,0.273-0.005,0.545-0.01,0.818c0.042,0.076,0.086,0.151,0.127,0.226c0,0.959,0.35,1.811,0.338,2.792
		c0.042,0.075,0.084,0.151,0.126,0.226c0,0.193,0,0.387,0,0.58c0,0.224,0.208,0.464,0.349,0.464c0.298,0,0.612-0.135,0.812-0.232
		c0.135,0.279,0.813,2.9,0.813,3.25c0,0.078,0,0.154,0,0.231c0.148,0.1,0.503,0.465,0.581,0.465c0.266,0,0.135-0.04,0.465-0.116
		c0.036-0.136,0.116-0.317,0.116-0.349c0-0.428-0.306-0.977-0.439-1.281c-0.046-0.191-0.094-0.383-0.142-0.575
		c0-0.193,0-0.387,0-0.58c-0.023-0.193-0.045-0.385-0.069-0.579c-0.016-0.503-0.031-1.007-0.046-1.511c-0.077,0-0.155,0-0.232,0
		c0-0.62,0-1.238,0-1.857c0.195,0.136,0.232,0.017,0.232,0.348c0,0.04,0,0.078,0,0.116c0.006,0.114,0.013,0.229,0.02,0.343
		c0.032,0.156,0.064,0.313,0.096,0.469c0.275,0.074,0.516,0.392,1.088,0.654c0.347,0.158,0.263,0.234,0.51,0.42
		c0.394,0.298,0.33-0.019,0.495,0.432c0.208,0.311,0.907,0.211,0.927,0.119c-0.082-0.985-0.781-1.025-1.235-1.665
		c-0.256-0.361-0.397-0.431-0.586-0.809c-0.192-0.389-0.202-0.742-0.384-1.123c0-0.116,0-0.232,0-0.348
		c-0.033-0.558-0.209-1.084-0.349-1.625c-0.028-0.831-0.348-1.618-0.348-2.438c-0.075-0.154-0.581-1.134-0.581-1.16
		c0-0.191,0.034-0.288,0.095-0.347c0.33-0.319,0.266-0.368,0.35-0.894c0.146-0.902,0.367-1.75,0.367-2.707
		c-0.019-1.349,0.465-2.815,0.465-4.062c0-0.386-0.233-0.242-0.233-0.465c0-0.382,0.349-0.502,0.349-1.044
		c0-0.127-0.001-0.255-0.003-0.382c-0.001-0.309,0.084-0.391-0.218-0.477c-0.081-0.023-0.163-0.046-0.243-0.068
		c0-0.232,0-0.464,0-0.697c0-0.847-0.367-1.375-0.419-2.018c-0.003-0.398-0.117-0.523-0.316-0.728
		c-0.154-0.158-0.469-0.674-0.68-0.556c-0.031,0.017-0.063,0.035-0.094,0.052c-0.134-0.183-0.27-0.348-0.58-0.348
		c-0.364,0-1.007,0.985-1.162,1.277c-0.078,0-0.155,0-0.231,0c-0.04,0-0.078,0-0.117,0c-0.231,0-0.458-0.299-1.045-0.35
		c-0.05,0.616-0.525,1.615-0.774,2.128c-0.391,0.8-0.473,1.355-1.665,1.355c0.006-0.155,0.013-0.311,0.02-0.465
		c-0.044-0.503-0.09-1.006-0.135-1.508c0-0.193,0-0.387,0-0.58c-0.008-0.153-0.016-0.305-0.023-0.459
		c-0.079-0.303-0.156-0.605-0.235-0.908c-0.109-0.117-0.219-0.233-0.328-0.35c-0.193-0.046-0.385-0.093-0.576-0.14
		c-0.783,0.414-0.734,0.329-1.364,0.958c-0.404,0.405-0.734,0.826-1.191,1.131c-0.305-0.162-0.668-0.433-1.045-0.463
		c-0.303-0.451-1.162-0.637-1.162-1.161c-0.005-0.114-0.01-0.229-0.015-0.344c-0.073-0.232-0.145-0.467-0.218-0.701
		c0-0.077,0-0.154,0-0.232c0.002-0.079,0.003-0.156,0.006-0.235c-0.157-0.308-0.313-0.617-0.47-0.925
		c-0.471-0.11-0.35-0.032-0.465-0.349c-0.116,0-0.232,0-0.348,0c-0.327,0-0.72,0.439-0.813,0.697
		c-0.643,0.053-0.519,0.294-1.161,0.348c-0.187,0.278-1.426,1.161-1.859,1.161c-0.161-0.001-0.322-0.001-0.484-0.001
		c0.046-0.541,0.091-1.083,0.136-1.625c-0.002-0.427-0.006-0.855-0.01-1.282c0.042-0.076,0.085-0.15,0.126-0.226
		c-0.003-0.39-0.006-0.778-0.01-1.167c0.042-0.076,0.085-0.15,0.125-0.228c0-0.309,0-0.619,0-0.928c0-0.271-0.31-0.581-0.579-0.581
		c-0.079,0-0.156,0-0.233,0c-0.279,0-0.342,0.188-0.581,0.348c0,0.655-0.232,0.507-0.232,1.16c0,0.596-0.247,1.463-0.696,1.625
		c0,0.116,0,0.232,0,0.348c-0.455,0.107-0.695,0.251-0.813,0.697c-0.072-0.001-0.145-0.001-0.218-0.002
		c-0.042-0.153-0.083-0.307-0.125-0.46c0.037-0.117,0.073-0.233,0.11-0.351c-0.142-0.079-0.125-0.116-0.348-0.116
		c-0.403,0-0.177,0.232-0.581,0.232c-0.079,0.004-0.159,0.008-0.239,0.011c-0.075-0.042-0.15-0.085-0.226-0.127
		c-0.194,0-0.387,0-0.581,0c-0.039,0-0.077,0-0.116,0c-0.268,0-0.35,0.082-0.35,0.349c0,0.232,0,0.464,0,0.696
		c0,0.077,0,0.155,0,0.233c0.178,0.335,0.909,1.49,0.931,1.741c0.637,0.053,0.35,0.1,0.58,0.58
		c-0.227,0.339-0.276,0.573-0.464,0.929c0,0.078,0,0.154,0,0.232c0,0.077,0,0.155,0,0.232c0,0.171-0.25,0.512-0.329,0.699
		c-0.044,0.309-0.09,0.617-0.135,0.926c-0.318,0.114-0.239-0.006-0.349,0.464c-0.261-0.061-0.267-0.117-0.581-0.117
		c-0.385,0-0.243-0.232-0.464-0.232c-0.353,0-0.395,0.201-0.465,0.464c-0.077,0-0.154,0-0.232,0
		c-0.056-0.662-0.33-1.138-0.811-1.386c-0.117,0.036-0.234,0.073-0.352,0.109c0.008,0.271,0.015,0.542,0.022,0.814
		c-0.044,0.386-0.092,0.773-0.138,1.159c0,0.193,0,0.386,0,0.58c0,0.492-1.375,1.227-1.969,1.279
		c0.076-0.194,0.151-0.389,0.227-0.583c0-0.116,0-0.231,0-0.348c0-0.078,0-0.155,0-0.232c0-0.392,0.449-0.646,0.697-0.813
		c0-0.598,0.233-0.365,0.233-1.043c0-0.363,0.367-1.747,0.717-2.121c0.195-0.208,0.21,0.01,0.21-0.375
		c0-0.234-0.068-0.291,0.175-0.291c0.097,0,0.193,0,0.291,0c0.403,0,0.176,0.232,0.581,0.232c0.314,0,0.32,0.056,0.581,0.116
		c0.3-0.202,0.166-0.2,0.374-0.216c0.379-0.027,0.167-0.438,0.097-0.743c-0.164-0.711-0.476-1.582-0.704-2.058
		c0-0.156,0-0.31,0-0.464c-0.003-0.08-0.006-0.159-0.01-0.238c0.034-0.073,0.067-0.147,0.101-0.22
		c-0.108-0.544-0.216-1.088-0.323-1.632c-0.183-0.345-0.313-0.388-0.304-0.847c0.104,0.158,0.208,0.316,0.311,0.474
		c0.151,0.038,0.301,0.074,0.453,0.11c0.195-0.028,0.39-0.056,0.586-0.084c0.254-0.135,0.886-0.581,1.161-0.581
		c0.16,0,0.277,0.243,0.354,0.324c0.274,0.053,0.549,0.105,0.823,0.158c0.092-0.092,0.185-0.182,0.278-0.273
		c0.125-0.303,0.252-0.606,0.378-0.909c0.047-0.192,0.095-0.384,0.143-0.576c0-0.193,0-0.387,0-0.58c0-0.425,0-0.852,0-1.277
		c-0.003-0.074-0.005-0.146-0.007-0.221c-0.307-0.158-0.615-0.316-0.923-0.475c0-0.731,0.114-1.369,0.349-1.857
		c0.803,0.538,0.626,1.097,1.625,1.625c0.155,0,0.309,0,0.465,0c0.327,0,0.214,0.05,0.36,0.187c0.839,0.253,1.315,0.326,2.168,0.218
		c0.357-0.135,0.714-0.271,1.072-0.405c0.279-0.416,0.649-0.629,0.93-1.043c0.295-0.437,0.445-0.77,0.737-1.236
		c0.574-0.921,1.202-1.601,1.701-2.247c0.578-0.977,1.057-0.87,1.497-2.218c0.136-0.415,0.246-0.732,0.246-1.263
		c0-2.559-0.696-3.75-0.696-6.151c0-0.233,0-0.464,0-0.696c0-0.117,0-0.233,0-0.349c-0.36-0.748-0.323-1.511-0.772-2.246
		c-0.262-0.429-1.053-1.513-1.086-1.932c-0.474-0.126-1.18-1.117-1.861-1.507c-0.6-0.77-0.902-1.509-1.856-1.512
		c-0.348,0.167-1.465,0.547-1.706,0.733c-0.286,0.221-0.617,1.381-0.617,1.938c-0.233,0-0.465,0-0.697,0
		c-0.08,0-0.159,0.001-0.24,0.002c-0.036-0.118-0.073-0.234-0.11-0.35c-0.154,0-0.31,0-0.463,0c-0.608,0-1.332,2.115-1.495,2.683
		c-0.168,0.585-0.264,1.102-0.478,1.611c-0.206,0.486-0.29,1.256-0.466,1.625c0.003,0.195,0.006,0.39,0.01,0.586
		c-0.444,0.795-0.36,2.666-0.36,3.475c0.003,0.079,0.005,0.158,0.008,0.235c-0.081,0.155-0.16,0.308-0.24,0.461
		c-0.146-0.001-0.292-0.003-0.438-0.004c-0.034-0.192-0.069-0.385-0.104-0.577c-0.016-0.118-0.032-0.235-0.047-0.354
		c0.041-0.076,0.083-0.151,0.125-0.226c0-0.078,0-0.155,0-0.233c0-0.929-0.108-1.795-0.125-2.675
		c0.041-0.076,0.083-0.151,0.125-0.226c0-0.232,0-0.464,0-0.697c0-0.078,0-0.155,0-0.231c-0.237-0.445-0.267-0.783-0.813-0.929
		c0.059-0.705,0.981-0.923,1.455-1.332c0.647-0.559,0.879-0.729,1.101-1.686c-0.35-0.093-0.255,0.002-0.359-0.314
		c-0.305-0.087-0.611-0.175-0.917-0.262c-0.194,0.076-0.387,0.152-0.582,0.228c0.129-0.192,0.289-0.401,0.424-0.62
		c0.194-0.318,0.121-0.457,0.272-0.771c0-0.118,0-0.233,0-0.349c0-0.435-0.292-0.543-0.581-0.696c-0.079,0-0.156,0-0.232,0
		c-0.116,0-0.231,0-0.349,0c-0.813,0.39-0.896,0.421-1.598,0.956c-0.229,0.174-1.31,1.133-1.421,1.133c-0.078,0-0.155,0-0.233,0
		c-0.214-0.446-0.453-1.336-0.929-1.509c0.008-0.116,0.016-0.233,0.024-0.35c-0.047-0.309-0.095-0.618-0.141-0.927
		c-0.002-0.157-0.007-0.313-0.009-0.471c0.042-0.074,0.084-0.15,0.126-0.226c-0.007-0.114-0.012-0.229-0.018-0.343
		c-0.079-0.259-0.158-0.52-0.236-0.78c-0.225-0.128-0.45-0.256-0.675-0.385c0-0.271,0-0.542,0-0.812
		c0.245-0.46,0.335-0.447,0.589-0.815c-0.081-0.309-0.16-0.617-0.24-0.926c-0.078,0-0.156,0-0.234,0c0-0.193,0-0.387,0-0.58
		c0.619-0.144,1.775-0.635,2.281-0.971c0.209-0.14,1.785-1.375,1.785-1.466c0-0.314-0.056-0.32-0.116-0.581
		c-0.4-0.107-0.307-0.233-0.465-0.233h-0.464c-0.305,0.146-0.489,0.083-0.775,0.271c-0.137,0.09-0.462,0.369-0.647,0.514
		c-0.421,0.328-0.724,0.788-1.364,0.84c0.329-0.492,0.572-0.349,0.697-0.812c1.355-0.317,1.783-1.535,2.628-1.768l0.623-1.018V12.36
		c0-0.24-0.34-0.58-0.464-0.58c-0.395,0-3,2.177-3.252,2.553c-0.455,0.038-0.353-0.07-0.465,0.348l-2.209-0.025l-1.042,0.142
		c-0.618,0.919-0.491,1.174-0.939,2.095c0.042,0.075,0.084,0.151,0.125,0.226c-0.534,0.796-2.537,1.355-3.485,1.857
		c0,0.077,0,0.154,0,0.232c0,0.039,0,0.078,0,0.116c0,0.077,0,0.155,0,0.232c0.147,0.078,0.385,0.231,0.581,0.231
		c0.273,0.004,0.547,0.007,0.82,0.011c0.075-0.042,0.149-0.084,0.226-0.125c0.231-0.007,0.462-0.015,0.693-0.021
		c0.427-0.11,0.854-0.219,1.282-0.329c0.193,0,0.387,0,0.58,0c-0.493,0.933-0.478,1.973-0.813,2.669
		c0.002,0.196,0.007,0.391,0.011,0.587c-0.042,0.075-0.085,0.151-0.127,0.225c0,0.078,0,0.155,0,0.233
		c0.003,0.079,0.006,0.159,0.01,0.238c-0.032,0.073-0.064,0.146-0.095,0.22c0.029,0.196,0.057,0.392,0.085,0.586
		c0.129,0.086,0.39,0.348,0.465,0.348c0.266,0,0.136-0.04,0.443-0.124c0.046-0.114,0.091-0.227,0.138-0.34c0-0.078,0-0.155,0-0.232
		c0-0.078,0-0.155,0-0.232c0-0.354,0.202-0.395,0.464-0.464c-0.006,0.31-0.012,0.619-0.019,0.929c0.045,0.58,0.09,1.161,0.135,1.741
		c0,0.231,0,0.463,0,0.696c0.035,0.624,0.059,1.064,0.349,1.624c0.48,0,0.739,0.078,1.063-0.352
		c-0.083-0.348-0.167-0.694-0.25-1.041c0-0.193,0-0.387,0-0.581c0-0.812,0-1.625,0-2.437c0.001-0.115,0.003-0.23,0.006-0.345
		c0.037-0.118,0.073-0.234,0.11-0.351c-0.522-1.087-0.178-0.737,0.451-1.041c0.089,0.261,0.18,0.523,0.27,0.784
		c0.069,0.085,0.139,0.17,0.209,0.256c0.328,0.027,0.463-0.003,0.463,0.348c0,0.155,0,0.31,0,0.464c0,0.278,0.189,0.341,0.374,0.587
		c-0.046,0.152-0.094,0.305-0.14,0.457c0,0.078,0,0.155,0,0.233c0,0.078,0,0.154,0,0.232c0.049,0.103,0.58,1.586,0.58,1.624
		c0,0.262-0.51,0.808-0.673,1.07c-0.298,0.478-0.218,0.776-0.607,1.249c-0.654,0.798-1.137,0.838-1.739,1.976
		c0,0.077,0,0.154,0,0.232c0,0.077,0,0.154,0,0.231c0.437,0.232,0.481,0.333,1.053,0.486c0.114-0.047,0.227-0.092,0.341-0.138
		c0.077,0,0.154,0,0.23,0c0.078,0,0.156,0,0.234,0c0.42-0.223,0.797-0.415,1.393-0.464c-0.26,0.543-0.369,1.417-0.58,1.857
		c0,0.192,0,0.387,0,0.58c0,0.154,0,0.309,0,0.463c0.001,0.078,0.001,0.156,0.001,0.233c-0.232,0.503-0.466,1.005-0.698,1.508
		c0,0.078,0,0.154,0,0.231c0,0.194,0,0.387,0,0.581c0.01,0.153,0.021,0.305,0.031,0.458c0.028,0.197,0.058,0.392,0.085,0.587
		c-0.562,0.013-1.226,0.316-1.728,0.478c-0.481,0.157-1.524,0.211-1.524,0.799c0,0.117,0,0.232,0,0.348
		c0,0.518,0.936,0.881,1.51,0.928c0.105,0.396,0.287,0.384,0.579,0.575c0.117-0.036,0.233-0.073,0.351-0.109
		c-0.195,0.839-0.588,1.471-1.02,2.114c-0.294,0.439-0.279,0.646-0.485,1.024c-0.305,0.559-0.646,0.336-0.817,0.807
		c-0.155,0-0.311,0-0.465,0c-0.694,0-1.284-0.699-2.329-0.685c-0.076-0.042-0.15-0.085-0.227-0.127
		c-0.566,0.01-1.043-0.114-1.626-0.114c-0.281-0.135-0.507-0.233-0.929-0.233c-0.117,0-0.232,0-0.348,0
		c-0.009-0.272-0.018-0.543-0.026-0.816c0.047-0.347,0.095-0.694,0.142-1.041c0.155,0,0.31,0,0.465,0
		c0.262-0.391,0.413-0.31,0.464-0.928c0.078,0,0.155,0,0.232,0c0-1.199-0.396-0.724-0.738-1.352
		c-0.272-0.502-0.411-0.972-0.657-1.435c0-0.116,0-0.232,0-0.348c-0.179-0.338-0.29-0.566-0.463-0.928
		c0.01-0.492-0.317-0.096-0.317-0.607c-0.221-2.414-0.162-4.578-0.137-6.827c-0.042-0.075-0.085-0.151-0.127-0.226
		c0-1.371-0.183-2.692-0.183-3.848c-0.639-5.486-0.462-8.795,0.102-14.478l0.125-0.226v-1.16l0.011-0.936l-0.049-0.087
		c0.025-0.209-0.024-0.419,0-0.628c0.042-0.114,0.036-0.227-0.021-0.34l-0.045-0.081L33.57,7.331
		c-0.003-0.146-0.033-0.263-0.062-0.406c-0.141-0.656,0.121-1.565,0.243-2.34V4.353l0.024-0.227l-0.056-0.818V3.076V2.843
		c-0.326-0.676,0.268-0.558-0.433-0.928h-0.231h-0.117C32.824,1.912,32.791,2.172,32.772,2.272z"/>
</g>
<path fill-rule="evenodd" clip-rule="evenodd" fill="#FFFFFF" d="M64.529,118.206h1.162c-0.125-0.468-0.31-0.608-0.697-0.812
	C64.633,117.634,64.542,117.624,64.529,118.206z"/>
<path fill-rule="evenodd" clip-rule="evenodd" fill="#FFFFFF" d="M61.502,119.828l0.007-0.23v-0.464c0-0.271-0.31-0.581-0.581-0.581
	c-0.379,0-0.447,0.33-0.575,0.579l0.138,0.692l0.534,0.491l0.359-0.159L61.502,119.828z"/>
<path fill-rule="evenodd" clip-rule="evenodd" fill="#FFFFFF" d="M51.405,120.295c0-0.328-0.267-0.448-0.465-0.579
	c-0.152,0.305-0.115-0.097-0.115,0.347v0.232c0,0.386,0.208,0.34,0.58,0.348V120.295z"/>
<path fill-rule="evenodd" clip-rule="evenodd" fill="#FFFFFF" d="M57.561,121.339c0.295-0.559,0.425-0.943,0.697-1.509v-0.348
	v-0.231c0-0.271-0.31-0.581-0.581-0.581c-0.077,0-0.433,0.366-0.581,0.464c-0.064,0.777-0.581,0.93-0.581,1.276
	c0,0.29,0.333,0.929,0.696,0.929h0.117H57.561z"/>
<path fill-rule="evenodd" clip-rule="evenodd" fill="#FFFFFF" d="M54.192,121.687c0.232-0.439,0.453-1.074,0.739-1.467
	c0.19-0.263,0.887-1.036,0.887-1.317c0-0.226-0.158-0.378-0.232-0.697h-0.581c-0.142,0.392-1.554,1.977-1.974,2.089l-0.229-0.583
	l-0.237,0.004c-0.271,0-0.58,0.309-0.58,0.579v0.232v0.232c0.305,0.161,0.689,0.267,0.974,0.419c0.45,0.242-0.063,0.045,0.377,0.319
	c0.135,0.086,0.265,0.124,0.392,0.189h0.231H54.192z"/>
</svg>
